<?xml version="1.0" standalone="no"?>
<!DOCTYPE svg PUBLIC "-//W3C//DTD SVG 20010904//EN"
 "http://www.w3.org/TR/2001/REC-SVG-20010904/DTD/svg10.dtd">
<svg version="1.0" xmlns="http://www.w3.org/2000/svg"
 width="574.000000pt" height="574.000000pt" viewBox="0 0 574.000000 574.000000"
 preserveAspectRatio="xMidYMid meet">
<metadata>
Created by potrace 1.14, written by Peter Selinger 2001-2017
</metadata>
<g transform="translate(0.000000,574.000000) scale(0.100000,-0.100000)"
fill="#000000" stroke="none">
<path d="M2759 4676 c-2 -2 -38 -7 -79 -10 -80 -7 -130 -13 -168 -22 -13 -3
-43 -7 -65 -10 -73 -10 -268 -63 -366 -100 -446 -167 -713 -438 -881 -894 -57
-155 -107 -385 -126 -590 -9 -87 -9 -364 -1 -400 3 -14 13 -61 21 -105 74
-374 335 -925 564 -1188 224 -257 520 -392 947 -432 116 -11 405 -14 480 -4
344 43 726 198 1030 417 90 65 248 201 273 235 8 10 23 28 35 41 99 107 195
261 262 416 53 123 104 294 120 405 3 23 8 52 10 65 28 137 22 449 -10 550 -3
10 -8 29 -10 41 -12 64 -126 348 -174 436 -6 10 -38 70 -72 133 -221 409 -489
678 -848 851 -124 60 -248 103 -373 129 -51 10 -106 22 -123 25 -32 7 -440 17
-446 11z"/>
</g>
</svg>
